<mxfile host="app.diagrams.net" agent="Mozilla/5.0 (Windows NT 10.0; Win64; x64) AppleWebKit/537.36 (KHTML, like Gecko) Chrome/134.0.0.0 Safari/537.36" version="26.2.5">
  <diagram name="Page-1" id="Mrzf-E5eBwfBXjPNNn38">
    <mxGraphModel dx="1044" dy="3835" grid="1" gridSize="10" guides="1" tooltips="1" connect="1" arrows="1" fold="1" page="1" pageScale="1" pageWidth="2339" pageHeight="3300" math="0" shadow="0">
      <root>
        <mxCell id="0" />
        <mxCell id="1" parent="0" />
        <mxCell id="CgwD0y47E_K2ddnWTR-N-1" value="" style="whiteSpace=wrap;html=1;aspect=fixed;" vertex="1" parent="1">
          <mxGeometry x="70" y="70" width="400" height="400" as="geometry" />
        </mxCell>
        <mxCell id="CgwD0y47E_K2ddnWTR-N-15" style="edgeStyle=orthogonalEdgeStyle;rounded=0;orthogonalLoop=1;jettySize=auto;html=1;strokeWidth=4;" edge="1" parent="1" source="CgwD0y47E_K2ddnWTR-N-2" target="CgwD0y47E_K2ddnWTR-N-1">
          <mxGeometry relative="1" as="geometry" />
        </mxCell>
        <mxCell id="CgwD0y47E_K2ddnWTR-N-2" value="&#xa;&lt;div style=&quot;color: #3b3b3b;background-color: #ffffff;font-family: Consolas, &#39;Courier New&#39;, monospace;font-weight: normal;font-size: 14px;line-height: 19px;white-space: pre;&quot;&gt;&lt;div&gt;&lt;span style=&quot;color: #0000ff;&quot;&gt;function&lt;/span&gt;&lt;span style=&quot;color: #3b3b3b;&quot;&gt; &lt;/span&gt;&lt;span style=&quot;color: #795e26;&quot;&gt;allUsersData&lt;/span&gt;&lt;span style=&quot;color: #3b3b3b;&quot;&gt;()&lt;/span&gt;&lt;/div&gt;&lt;div&gt;&lt;span style=&quot;color: #3b3b3b;&quot;&gt;{&lt;/span&gt;&lt;/div&gt;&lt;div&gt;&lt;span style=&quot;color: #3b3b3b;&quot;&gt;&amp;nbsp; &amp;nbsp; &lt;/span&gt;&lt;span style=&quot;color: #0000ff;&quot;&gt;let&lt;/span&gt;&lt;span style=&quot;color: #3b3b3b;&quot;&gt; &lt;/span&gt;&lt;span style=&quot;color: #001080;&quot;&gt;users&lt;/span&gt;&lt;span style=&quot;color: #000000;&quot;&gt;=&lt;/span&gt;&lt;span style=&quot;color: #3b3b3b;&quot;&gt;[]; &amp;nbsp; &lt;/span&gt;&lt;span style=&quot;color: #008000;&quot;&gt;//=== memory&lt;/span&gt;&lt;/div&gt;&lt;div&gt;&lt;span style=&quot;color: #3b3b3b;&quot;&gt;&amp;nbsp; &amp;nbsp; &lt;/span&gt;&lt;span style=&quot;color: #795e26;&quot;&gt;setTimeout&lt;/span&gt;&lt;span style=&quot;color: #3b3b3b;&quot;&gt;(() &lt;/span&gt;&lt;span style=&quot;color: #0000ff;&quot;&gt;=&amp;gt;&lt;/span&gt;&lt;span style=&quot;color: #3b3b3b;&quot;&gt; {&lt;/span&gt;&lt;/div&gt;&lt;div&gt;&lt;span style=&quot;color: #3b3b3b;&quot;&gt;&amp;nbsp; &amp;nbsp; &amp;nbsp; &amp;nbsp; &lt;/span&gt;&lt;span style=&quot;color: #001080;&quot;&gt;users&lt;/span&gt;&lt;span style=&quot;color: #000000;&quot;&gt;=&lt;/span&gt;&lt;span style=&quot;color: #3b3b3b;&quot;&gt;[{&lt;/span&gt;&lt;span style=&quot;color: #001080;&quot;&gt;id&lt;/span&gt;&lt;span style=&quot;color: #001080;&quot;&gt;:&lt;/span&gt;&lt;span style=&quot;color: #098658;&quot;&gt;1&lt;/span&gt;&lt;span style=&quot;color: #3b3b3b;&quot;&gt;,&lt;/span&gt;&lt;span style=&quot;color: #001080;&quot;&gt;name&lt;/span&gt;&lt;span style=&quot;color: #001080;&quot;&gt;:&lt;/span&gt;&lt;span style=&quot;color: #a31515;&quot;&gt;&quot;ziad&quot;&lt;/span&gt;&lt;span style=&quot;color: #3b3b3b;&quot;&gt;},{&lt;/span&gt;&lt;span style=&quot;color: #001080;&quot;&gt;id&lt;/span&gt;&lt;span style=&quot;color: #001080;&quot;&gt;:&lt;/span&gt;&lt;span style=&quot;color: #098658;&quot;&gt;2&lt;/span&gt;&lt;span style=&quot;color: #3b3b3b;&quot;&gt;,&lt;/span&gt;&lt;span style=&quot;color: #001080;&quot;&gt;name&lt;/span&gt;&lt;span style=&quot;color: #001080;&quot;&gt;:&lt;/span&gt;&lt;span style=&quot;color: #a31515;&quot;&gt;&quot;hamza&quot;&lt;/span&gt;&lt;span style=&quot;color: #3b3b3b;&quot;&gt;},{&lt;/span&gt;&lt;span style=&quot;color: #001080;&quot;&gt;id&lt;/span&gt;&lt;span style=&quot;color: #001080;&quot;&gt;:&lt;/span&gt;&lt;span style=&quot;color: #098658;&quot;&gt;3&lt;/span&gt;&lt;span style=&quot;color: #3b3b3b;&quot;&gt;,&lt;/span&gt;&lt;span style=&quot;color: #001080;&quot;&gt;name&lt;/span&gt;&lt;span style=&quot;color: #001080;&quot;&gt;:&lt;/span&gt;&lt;span style=&quot;color: #a31515;&quot;&gt;&quot;lubna&quot;&lt;/span&gt;&lt;span style=&quot;color: #3b3b3b;&quot;&gt;}]&lt;/span&gt;&lt;/div&gt;&lt;div&gt;&lt;span style=&quot;color: #3b3b3b;&quot;&gt;&amp;nbsp; &amp;nbsp; &amp;nbsp; &amp;nbsp; &lt;/span&gt;&lt;span style=&quot;color: #001080;&quot;&gt;console&lt;/span&gt;&lt;span style=&quot;color: #3b3b3b;&quot;&gt;.&lt;/span&gt;&lt;span style=&quot;color: #795e26;&quot;&gt;log&lt;/span&gt;&lt;span style=&quot;color: #3b3b3b;&quot;&gt;(&lt;/span&gt;&lt;span style=&quot;color: #001080;&quot;&gt;users&lt;/span&gt;&lt;span style=&quot;color: #3b3b3b;&quot;&gt;);&lt;/span&gt;&lt;/div&gt;&lt;div&gt;&lt;span style=&quot;color: #3b3b3b;&quot;&gt;&amp;nbsp; &amp;nbsp; &amp;nbsp; &amp;nbsp; &lt;/span&gt;&lt;/div&gt;&lt;div&gt;&lt;span style=&quot;color: #3b3b3b;&quot;&gt;&amp;nbsp; &amp;nbsp; }, &lt;/span&gt;&lt;span style=&quot;color: #098658;&quot;&gt;1000&lt;/span&gt;&lt;span style=&quot;color: #3b3b3b;&quot;&gt;); &amp;nbsp;&lt;/span&gt;&lt;span style=&quot;color: #008000;&quot;&gt;// wep api &amp;nbsp; ===&amp;gt; web queue &amp;nbsp;==&amp;gt; web stack ==&amp;gt; users[{},{},{}]&lt;/span&gt;&lt;/div&gt;&lt;div&gt;&lt;span style=&quot;color: #3b3b3b;&quot;&gt;&amp;nbsp; &amp;nbsp; &lt;/span&gt;&lt;span style=&quot;color: #001080;&quot;&gt;console&lt;/span&gt;&lt;span style=&quot;color: #3b3b3b;&quot;&gt;.&lt;/span&gt;&lt;span style=&quot;color: #795e26;&quot;&gt;log&lt;/span&gt;&lt;span style=&quot;color: #3b3b3b;&quot;&gt;(&lt;/span&gt;&lt;span style=&quot;color: #a31515;&quot;&gt;&quot;users&quot;&lt;/span&gt;&lt;span style=&quot;color: #3b3b3b;&quot;&gt;,&lt;/span&gt;&lt;span style=&quot;color: #001080;&quot;&gt;users&lt;/span&gt;&lt;span style=&quot;color: #3b3b3b;&quot;&gt;); &amp;nbsp; &lt;/span&gt;&lt;span style=&quot;color: #008000;&quot;&gt;// web stack ==&amp;gt; users ==&amp;gt; []&lt;/span&gt;&lt;/div&gt;&lt;div&gt;&lt;span style=&quot;color: #3b3b3b;&quot;&gt;&amp;nbsp; &amp;nbsp; &lt;/span&gt;&lt;/div&gt;&lt;div&gt;&lt;span style=&quot;color: #3b3b3b;&quot;&gt;}&lt;/span&gt;&lt;/div&gt;&lt;br&gt;&lt;div&gt;&lt;span style=&quot;color: #795e26;&quot;&gt;allUsersData&lt;/span&gt;&lt;span style=&quot;color: #3b3b3b;&quot;&gt;();&lt;/span&gt;&lt;/div&gt;&lt;/div&gt;&#xa;&#xa;" style="rounded=1;whiteSpace=wrap;html=1;" vertex="1" parent="1">
          <mxGeometry x="650" width="270" height="280" as="geometry" />
        </mxCell>
        <mxCell id="CgwD0y47E_K2ddnWTR-N-3" value="&lt;h1 style=&quot;margin-top: 0px;&quot;&gt;virtual Context&lt;br&gt;===&amp;gt;&lt;br&gt;variables&lt;br&gt;functions&lt;/h1&gt;" style="text;html=1;whiteSpace=wrap;overflow=hidden;rounded=0;" vertex="1" parent="1">
          <mxGeometry x="50" y="-80" width="530" height="140" as="geometry" />
        </mxCell>
        <mxCell id="CgwD0y47E_K2ddnWTR-N-4" value="&lt;h1 style=&quot;margin-top: 0px;&quot;&gt;Code&lt;/h1&gt;" style="text;html=1;whiteSpace=wrap;overflow=hidden;rounded=0;" vertex="1" parent="1">
          <mxGeometry x="790" y="-11" width="150" height="60" as="geometry" />
        </mxCell>
        <mxCell id="CgwD0y47E_K2ddnWTR-N-7" value="&lt;h1 style=&quot;margin-top: 0px;&quot;&gt;web API&lt;/h1&gt;" style="text;html=1;whiteSpace=wrap;overflow=hidden;rounded=0;" vertex="1" parent="1">
          <mxGeometry x="790" y="350" width="180" height="40" as="geometry" />
        </mxCell>
        <mxCell id="CgwD0y47E_K2ddnWTR-N-8" value="&#xa;&lt;div style=&quot;color: #3b3b3b;background-color: #ffffff;font-family: Consolas, &#39;Courier New&#39;, monospace;font-weight: normal;font-size: 14px;line-height: 19px;white-space: pre;&quot;&gt;&lt;div&gt;&lt;span style=&quot;color: #795e26;&quot;&gt;setTimeout&lt;/span&gt;&lt;span style=&quot;color: #3b3b3b;&quot;&gt;(() &lt;/span&gt;&lt;span style=&quot;color: #0000ff;&quot;&gt;=&amp;gt;&lt;/span&gt;&lt;span style=&quot;color: #3b3b3b;&quot;&gt; {&lt;/span&gt;&lt;/div&gt;&lt;div&gt;&lt;span style=&quot;color: #3b3b3b;&quot;&gt;&amp;nbsp; &amp;nbsp; &lt;/span&gt;&lt;span style=&quot;color: #001080;&quot;&gt;console&lt;/span&gt;&lt;span style=&quot;color: #3b3b3b;&quot;&gt;.&lt;/span&gt;&lt;span style=&quot;color: #795e26;&quot;&gt;log&lt;/span&gt;&lt;span style=&quot;color: #3b3b3b;&quot;&gt;(&lt;/span&gt;&lt;span style=&quot;color: #a31515;&quot;&gt;&quot;test&quot;&lt;/span&gt;&lt;span style=&quot;color: #3b3b3b;&quot;&gt;);&lt;/span&gt;&lt;/div&gt;&lt;div&gt;&lt;span style=&quot;color: #3b3b3b;&quot;&gt;&amp;nbsp; &amp;nbsp; &lt;/span&gt;&lt;/div&gt;&lt;div&gt;&lt;span style=&quot;color: #3b3b3b;&quot;&gt;}, &lt;/span&gt;&lt;span style=&quot;color: #098658;&quot;&gt;0&lt;/span&gt;&lt;span style=&quot;color: #3b3b3b;&quot;&gt;);&lt;/span&gt;&lt;/div&gt;&lt;div&gt;&lt;span style=&quot;color: #795e26;&quot;&gt;setTimeout&lt;/span&gt;&lt;span style=&quot;color: #3b3b3b;&quot;&gt;(() &lt;/span&gt;&lt;span style=&quot;color: #0000ff;&quot;&gt;=&amp;gt;&lt;/span&gt;&lt;span style=&quot;color: #3b3b3b;&quot;&gt; {&lt;/span&gt;&lt;/div&gt;&lt;div&gt;&lt;span style=&quot;color: #3b3b3b;&quot;&gt;&amp;nbsp; &amp;nbsp; &lt;/span&gt;&lt;span style=&quot;color: #001080;&quot;&gt;console&lt;/span&gt;&lt;span style=&quot;color: #3b3b3b;&quot;&gt;.&lt;/span&gt;&lt;span style=&quot;color: #795e26;&quot;&gt;log&lt;/span&gt;&lt;span style=&quot;color: #3b3b3b;&quot;&gt;(&lt;/span&gt;&lt;span style=&quot;color: #a31515;&quot;&gt;&quot;test&quot;&lt;/span&gt;&lt;span style=&quot;color: #3b3b3b;&quot;&gt;);&lt;/span&gt;&lt;/div&gt;&lt;div&gt;&lt;span style=&quot;color: #3b3b3b;&quot;&gt;&amp;nbsp; &amp;nbsp; &lt;/span&gt;&lt;/div&gt;&lt;div&gt;&lt;span style=&quot;color: #3b3b3b;&quot;&gt;}, &lt;/span&gt;&lt;span style=&quot;color: #098658;&quot;&gt;2000&lt;/span&gt;&lt;span style=&quot;color: #3b3b3b;&quot;&gt;);&lt;/span&gt;&lt;/div&gt;&lt;/div&gt;&#xa;&#xa;" style="rounded=1;whiteSpace=wrap;html=1;fontStyle=1" vertex="1" parent="1">
          <mxGeometry x="725" y="400" width="260" height="180" as="geometry" />
        </mxCell>
        <mxCell id="CgwD0y47E_K2ddnWTR-N-9" value="&#xa;&lt;div style=&quot;color: #3b3b3b;background-color: #ffffff;font-family: Consolas, &#39;Courier New&#39;, monospace;font-weight: normal;font-size: 14px;line-height: 19px;white-space: pre;&quot;&gt;&lt;div&gt;&lt;span style=&quot;color: #795e26;&quot;&gt;setTimeout&lt;/span&gt;&lt;span style=&quot;color: #3b3b3b;&quot;&gt;(() &lt;/span&gt;&lt;span style=&quot;color: #0000ff;&quot;&gt;=&amp;gt;&lt;/span&gt;&lt;span style=&quot;color: #3b3b3b;&quot;&gt; {&lt;/span&gt;&lt;/div&gt;&lt;div&gt;&lt;span style=&quot;color: #3b3b3b;&quot;&gt;&amp;nbsp; &amp;nbsp; &lt;/span&gt;&lt;span style=&quot;color: #001080;&quot;&gt;console&lt;/span&gt;&lt;span style=&quot;color: #3b3b3b;&quot;&gt;.&lt;/span&gt;&lt;span style=&quot;color: #795e26;&quot;&gt;log&lt;/span&gt;&lt;span style=&quot;color: #3b3b3b;&quot;&gt;(&lt;/span&gt;&lt;span style=&quot;color: #a31515;&quot;&gt;&quot;test&quot;&lt;/span&gt;&lt;span style=&quot;color: #3b3b3b;&quot;&gt;);&lt;/span&gt;&lt;/div&gt;&lt;div&gt;&lt;span style=&quot;color: #3b3b3b;&quot;&gt;&amp;nbsp; &amp;nbsp; &lt;/span&gt;&lt;/div&gt;&lt;div&gt;&lt;span style=&quot;color: #3b3b3b;&quot;&gt;}, &lt;/span&gt;&lt;span style=&quot;color: #098658;&quot;&gt;0&lt;/span&gt;&lt;span style=&quot;color: #3b3b3b;&quot;&gt;);&lt;/span&gt;&lt;/div&gt;&lt;/div&gt;&#xa;&#xa;" style="rounded=1;whiteSpace=wrap;html=1;" vertex="1" parent="1">
          <mxGeometry x="400" y="520" width="260" height="180" as="geometry" />
        </mxCell>
        <mxCell id="CgwD0y47E_K2ddnWTR-N-11" value="&lt;h1 style=&quot;margin-top: 0px;&quot;&gt;CallBack Queue&lt;/h1&gt;" style="text;html=1;whiteSpace=wrap;overflow=hidden;rounded=0;" vertex="1" parent="1">
          <mxGeometry x="490" y="460" width="220" height="50" as="geometry" />
        </mxCell>
        <mxCell id="CgwD0y47E_K2ddnWTR-N-12" value="&lt;h1 style=&quot;margin-top: 0px;&quot;&gt;Callstack Queue&lt;/h1&gt;" style="text;html=1;whiteSpace=wrap;overflow=hidden;rounded=0;" vertex="1" parent="1">
          <mxGeometry x="120" y="280" width="220" height="50" as="geometry" />
        </mxCell>
        <mxCell id="CgwD0y47E_K2ddnWTR-N-13" value="&lt;font style=&quot;font-size: 25px;&quot;&gt;memory==&amp;gt;&lt;br&gt;variables&lt;/font&gt;" style="rounded=1;whiteSpace=wrap;html=1;" vertex="1" parent="1">
          <mxGeometry x="120" y="80" width="140" height="130" as="geometry" />
        </mxCell>
        <mxCell id="CgwD0y47E_K2ddnWTR-N-14" value="&lt;font style=&quot;font-size: 26px;&quot;&gt;code&lt;/font&gt;" style="rounded=1;whiteSpace=wrap;html=1;" vertex="1" parent="1">
          <mxGeometry x="110" y="319" width="180" height="110" as="geometry" />
        </mxCell>
        <mxCell id="CgwD0y47E_K2ddnWTR-N-17" value="synchrounous" style="text;html=1;align=center;verticalAlign=middle;whiteSpace=wrap;rounded=0;strokeWidth=6;" vertex="1" parent="1">
          <mxGeometry x="472.5" y="210" width="115" height="30" as="geometry" />
        </mxCell>
        <mxCell id="CgwD0y47E_K2ddnWTR-N-28" style="edgeStyle=orthogonalEdgeStyle;rounded=0;orthogonalLoop=1;jettySize=auto;html=1;entryX=0.996;entryY=0.427;entryDx=0;entryDy=0;entryPerimeter=0;strokeWidth=4;" edge="1" parent="1" source="CgwD0y47E_K2ddnWTR-N-18" target="CgwD0y47E_K2ddnWTR-N-14">
          <mxGeometry relative="1" as="geometry" />
        </mxCell>
        <mxCell id="CgwD0y47E_K2ddnWTR-N-18" value="&#xa;&lt;div style=&quot;color: #3b3b3b;background-color: #ffffff;font-family: Consolas, &#39;Courier New&#39;, monospace;font-weight: normal;font-size: 14px;line-height: 19px;white-space: pre;&quot;&gt;&lt;div&gt;&lt;span style=&quot;color: #0000ff;&quot;&gt;function&lt;/span&gt;&lt;span style=&quot;color: #3b3b3b;&quot;&gt; &lt;/span&gt;&lt;span style=&quot;color: #795e26;&quot;&gt;print&lt;/span&gt;&lt;span style=&quot;color: #3b3b3b;&quot;&gt;()&lt;/span&gt;&lt;/div&gt;&lt;div&gt;&lt;span style=&quot;color: #3b3b3b;&quot;&gt;{&lt;/span&gt;&lt;/div&gt;&lt;br&gt;&lt;div&gt;&lt;span style=&quot;color: #3b3b3b;&quot;&gt;&amp;nbsp; &amp;nbsp; &lt;/span&gt;&lt;span style=&quot;color: #001080;&quot;&gt;console&lt;/span&gt;&lt;span style=&quot;color: #3b3b3b;&quot;&gt;.&lt;/span&gt;&lt;span style=&quot;color: #795e26;&quot;&gt;log&lt;/span&gt;&lt;span style=&quot;color: #3b3b3b;&quot;&gt;(&lt;/span&gt;&lt;span style=&quot;color: #a31515;&quot;&gt;&quot;first&quot;&lt;/span&gt;&lt;span style=&quot;color: #3b3b3b;&quot;&gt;);&lt;/span&gt;&lt;/div&gt;&lt;div&gt;&lt;span style=&quot;color: #3b3b3b;&quot;&gt;&amp;nbsp; &amp;nbsp; &lt;/span&gt;&lt;span style=&quot;color: #001080;&quot;&gt;console&lt;/span&gt;&lt;span style=&quot;color: #3b3b3b;&quot;&gt;.&lt;/span&gt;&lt;span style=&quot;color: #795e26;&quot;&gt;log&lt;/span&gt;&lt;span style=&quot;color: #3b3b3b;&quot;&gt;(&lt;/span&gt;&lt;span style=&quot;color: #a31515;&quot;&gt;&quot;second&quot;&lt;/span&gt;&lt;span style=&quot;color: #3b3b3b;&quot;&gt;);&lt;/span&gt;&lt;/div&gt;&lt;div&gt;&lt;span style=&quot;color: #3b3b3b;&quot;&gt;&amp;nbsp; &amp;nbsp; &lt;/span&gt;&lt;/div&gt;&lt;div&gt;&lt;span style=&quot;color: #3b3b3b;&quot;&gt;}&lt;/span&gt;&lt;/div&gt;&lt;/div&gt;&#xa;&#xa;" style="rounded=1;whiteSpace=wrap;html=1;" vertex="1" parent="1">
          <mxGeometry x="290" y="115" width="160" height="155" as="geometry" />
        </mxCell>
        <mxCell id="CgwD0y47E_K2ddnWTR-N-20" value="" style="shape=flexArrow;endArrow=classic;html=1;rounded=0;strokeWidth=4;" edge="1" parent="1" target="CgwD0y47E_K2ddnWTR-N-14">
          <mxGeometry width="50" height="50" relative="1" as="geometry">
            <mxPoint x="510" y="530" as="sourcePoint" />
            <mxPoint x="560" y="480" as="targetPoint" />
          </mxGeometry>
        </mxCell>
        <mxCell id="CgwD0y47E_K2ddnWTR-N-24" style="edgeStyle=orthogonalEdgeStyle;rounded=0;orthogonalLoop=1;jettySize=auto;html=1;strokeWidth=8;" edge="1" parent="1" source="CgwD0y47E_K2ddnWTR-N-22" target="CgwD0y47E_K2ddnWTR-N-14">
          <mxGeometry relative="1" as="geometry" />
        </mxCell>
        <mxCell id="CgwD0y47E_K2ddnWTR-N-22" value="&#xa;&lt;div style=&quot;color: #3b3b3b;background-color: #ffffff;font-family: Consolas, &#39;Courier New&#39;, monospace;font-weight: normal;font-size: 14px;line-height: 19px;white-space: pre;&quot;&gt;&lt;div&gt;&lt;span style=&quot;color: #795e26;&quot;&gt;setTimeout&lt;/span&gt;&lt;span style=&quot;color: #3b3b3b;&quot;&gt;(() &lt;/span&gt;&lt;span style=&quot;color: #0000ff;&quot;&gt;=&amp;gt;&lt;/span&gt;&lt;span style=&quot;color: #3b3b3b;&quot;&gt; {&lt;/span&gt;&lt;/div&gt;&lt;div&gt;&lt;span style=&quot;color: #3b3b3b;&quot;&gt;&amp;nbsp; &amp;nbsp; &lt;/span&gt;&lt;span style=&quot;color: #001080;&quot;&gt;console&lt;/span&gt;&lt;span style=&quot;color: #3b3b3b;&quot;&gt;.&lt;/span&gt;&lt;span style=&quot;color: #795e26;&quot;&gt;log&lt;/span&gt;&lt;span style=&quot;color: #3b3b3b;&quot;&gt;(&lt;/span&gt;&lt;span style=&quot;color: #a31515;&quot;&gt;&quot;test&quot;&lt;/span&gt;&lt;span style=&quot;color: #3b3b3b;&quot;&gt;);&lt;/span&gt;&lt;/div&gt;&lt;div&gt;&lt;span style=&quot;color: #3b3b3b;&quot;&gt;&amp;nbsp; &amp;nbsp; &lt;/span&gt;&lt;/div&gt;&lt;div&gt;&lt;span style=&quot;color: #3b3b3b;&quot;&gt;}, &lt;/span&gt;&lt;span style=&quot;color: #098658;&quot;&gt;2000&lt;/span&gt;&lt;span style=&quot;color: #3b3b3b;&quot;&gt;);&lt;/span&gt;&lt;/div&gt;&lt;/div&gt;&#xa;&#xa;" style="rounded=1;whiteSpace=wrap;html=1;" vertex="1" parent="1">
          <mxGeometry x="400" y="660" width="260" height="130" as="geometry" />
        </mxCell>
        <mxCell id="CgwD0y47E_K2ddnWTR-N-25" value="first&lt;br&gt;second&lt;br&gt;test1&lt;br&gt;test2" style="shape=callout;whiteSpace=wrap;html=1;perimeter=calloutPerimeter;strokeWidth=5;" vertex="1" parent="1">
          <mxGeometry x="450" y="300" width="180" height="130" as="geometry" />
        </mxCell>
        <mxCell id="CgwD0y47E_K2ddnWTR-N-29" style="edgeStyle=orthogonalEdgeStyle;rounded=0;orthogonalLoop=1;jettySize=auto;html=1;entryX=1.005;entryY=0.616;entryDx=0;entryDy=0;entryPerimeter=0;strokeWidth=6;" edge="1" parent="1" source="CgwD0y47E_K2ddnWTR-N-8" target="CgwD0y47E_K2ddnWTR-N-9">
          <mxGeometry relative="1" as="geometry">
            <Array as="points">
              <mxPoint x="855" y="630" />
              <mxPoint x="693" y="630" />
            </Array>
          </mxGeometry>
        </mxCell>
        <mxCell id="CgwD0y47E_K2ddnWTR-N-30" style="edgeStyle=orthogonalEdgeStyle;rounded=0;orthogonalLoop=1;jettySize=auto;html=1;entryX=1.007;entryY=0.353;entryDx=0;entryDy=0;entryPerimeter=0;strokeWidth=5;" edge="1" parent="1" source="CgwD0y47E_K2ddnWTR-N-2" target="CgwD0y47E_K2ddnWTR-N-8">
          <mxGeometry relative="1" as="geometry">
            <Array as="points">
              <mxPoint x="1040" y="185" />
              <mxPoint x="1040" y="363" />
              <mxPoint x="987" y="363" />
            </Array>
          </mxGeometry>
        </mxCell>
        <mxCell id="CgwD0y47E_K2ddnWTR-N-31" value="&lt;b&gt;&lt;font style=&quot;font-size: 17px;&quot;&gt;Asych&lt;/font&gt;&lt;/b&gt;" style="text;html=1;align=center;verticalAlign=middle;whiteSpace=wrap;rounded=0;" vertex="1" parent="1">
          <mxGeometry x="960" y="319" width="60" height="30" as="geometry" />
        </mxCell>
      </root>
    </mxGraphModel>
  </diagram>
</mxfile>
